<svg width="24" height="27" viewBox="0 0 24 27" fill="none" xmlns="http://www.w3.org/2000/svg">
<path d="M6.18457 17.4766C6.263 17.7108 6.34878 17.9365 6.44336 18.1533C7.00586 19.4232 7.79022 20.3825 8.7959 21.0303C9.8014 21.6778 10.9645 22.0019 12.2852 22.002C13.0266 22.002 13.7131 21.904 14.3438 21.708C14.9828 21.512 15.5497 21.2265 16.0439 20.8516C16.5382 20.4681 16.9476 20.0034 17.2715 19.458C17.6039 18.9126 17.8341 18.2897 17.9619 17.5908L23.5615 17.6172C23.4166 18.8187 23.054 19.9775 22.4746 21.0938C21.9036 22.2017 21.1317 23.1944 20.1602 24.0723C19.1971 24.9415 18.047 25.6322 16.709 26.1436C15.3795 26.6464 13.8752 26.8984 12.1963 26.8984C9.86106 26.8984 7.77255 26.3693 5.93164 25.3125C4.09942 24.2557 2.65025 22.7263 1.58496 20.7236C1.07664 19.7603 0.692534 18.6986 0.428711 17.54H6.18457V17.4766ZM5.72754 11.54C5.65118 12.1388 5.6123 12.7752 5.6123 13.4492C5.61231 14.1937 5.65892 14.8904 5.74707 15.54H0.102539C0.0341257 14.8704 2.52236e-06 14.1735 0 13.4492C0 12.7901 0.0296848 12.1537 0.0869141 11.54H5.72754ZM12.1963 0C13.7132 2.49116e-05 15.1197 0.213537 16.415 0.639648C17.7188 1.06575 18.8734 1.68784 19.8789 2.50586C20.8845 3.31549 21.7033 4.3083 22.334 5.48438C22.9732 6.66051 23.3825 8.00737 23.5615 9.52441H17.9619C17.8596 8.79998 17.6503 8.15625 17.335 7.59375C17.0197 7.02296 16.6152 6.53717 16.1211 6.13672C15.6268 5.73615 15.055 5.42889 14.4072 5.21582C13.7683 5.0029 13.0739 4.89652 12.3242 4.89648C10.9691 4.89648 9.78791 5.23296 8.78223 5.90625C7.77665 6.57101 6.9973 7.54299 6.44336 8.82129C6.34281 9.05177 6.25222 9.29159 6.16992 9.54004H0.391602C0.66 8.30449 1.06553 7.17827 1.61035 6.16211C2.68422 4.15927 4.14249 2.63423 5.9834 1.58594C7.82427 0.529174 9.89521 0 12.1963 0Z" fill="black"/>
<g clip-path="url(#paint0_angular_3311_9_clip_path)" data-figma-skip-parse="true"><g transform="matrix(0 0.022 -0.014 0 12.1846 13.54)"><foreignObject x="-877.469" y="-877.469" width="1754.94" height="1754.94"><div xmlns="http://www.w3.org/1999/xhtml" style="background:conic-gradient(from 90deg,rgba(107, 149, 240, 1) 0deg,rgba(109, 147, 240, 1) 87.2945deg,rgba(205, 39, 230, 1) 288deg,rgba(107, 149, 240, 1) 360deg);height:100%;width:100%;opacity:0.8"></div></foreignObject></g></g><path d="M6.18457 17.4766C6.263 17.7108 6.34878 17.9365 6.44336 18.1533C7.00586 19.4232 7.79022 20.3825 8.7959 21.0303C9.8014 21.6778 10.9645 22.0019 12.2852 22.002C13.0266 22.002 13.7131 21.904 14.3438 21.708C14.9828 21.512 15.5497 21.2265 16.0439 20.8516C16.5382 20.4681 16.9476 20.0034 17.2715 19.458C17.6039 18.9126 17.8341 18.2897 17.9619 17.5908L23.5615 17.6172C23.4166 18.8187 23.054 19.9775 22.4746 21.0938C21.9036 22.2017 21.1317 23.1944 20.1602 24.0723C19.1971 24.9415 18.047 25.6322 16.709 26.1436C15.3795 26.6464 13.8752 26.8984 12.1963 26.8984C9.86106 26.8984 7.77255 26.3693 5.93164 25.3125C4.09942 24.2557 2.65025 22.7263 1.58496 20.7236C1.07664 19.7603 0.692534 18.6986 0.428711 17.54H6.18457V17.4766ZM5.72754 11.54C5.65118 12.1388 5.6123 12.7752 5.6123 13.4492C5.61231 14.1937 5.65892 14.8904 5.74707 15.54H0.102539C0.0341257 14.8704 2.52236e-06 14.1735 0 13.4492C0 12.7901 0.0296848 12.1537 0.0869141 11.54H5.72754ZM12.1963 0C13.7132 2.49116e-05 15.1197 0.213537 16.415 0.639648C17.7188 1.06575 18.8734 1.68784 19.8789 2.50586C20.8845 3.31549 21.7033 4.3083 22.334 5.48438C22.9732 6.66051 23.3825 8.00737 23.5615 9.52441H17.9619C17.8596 8.79998 17.6503 8.15625 17.335 7.59375C17.0197 7.02296 16.6152 6.53717 16.1211 6.13672C15.6268 5.73615 15.055 5.42889 14.4072 5.21582C13.7683 5.0029 13.0739 4.89652 12.3242 4.89648C10.9691 4.89648 9.78791 5.23296 8.78223 5.90625C7.77665 6.57101 6.9973 7.54299 6.44336 8.82129C6.34281 9.05177 6.25222 9.29159 6.16992 9.54004H0.391602C0.66 8.30449 1.06553 7.17827 1.61035 6.16211C2.68422 4.15927 4.14249 2.63423 5.9834 1.58594C7.82427 0.529174 9.89521 0 12.1963 0Z" data-figma-gradient-fill="{&#34;type&#34;:&#34;GRADIENT_ANGULAR&#34;,&#34;stops&#34;:[{&#34;color&#34;:{&#34;r&#34;:0.42132025957107544,&#34;g&#34;:0.58629959821701050,&#34;b&#34;:0.94230771064758301,&#34;a&#34;:1.0},&#34;position&#34;:0.0},{&#34;color&#34;:{&#34;r&#34;:0.43002060055732727,&#34;g&#34;:0.57653135061264038,&#34;b&#34;:0.94143372774124146,&#34;a&#34;:1.0},&#34;position&#34;:0.24248465895652771},{&#34;color&#34;:{&#34;r&#34;:0.80419147014617920,&#34;g&#34;:0.15643490850925446,&#34;b&#34;:0.90384614467620850,&#34;a&#34;:1.0},&#34;position&#34;:0.80000001192092896}],&#34;stopsVar&#34;:[{&#34;color&#34;:{&#34;r&#34;:0.42132025957107544,&#34;g&#34;:0.58629959821701050,&#34;b&#34;:0.94230771064758301,&#34;a&#34;:1.0},&#34;position&#34;:0.0},{&#34;color&#34;:{&#34;r&#34;:0.43002060055732727,&#34;g&#34;:0.57653135061264038,&#34;b&#34;:0.94143372774124146,&#34;a&#34;:1.0},&#34;position&#34;:0.24248465895652771},{&#34;color&#34;:{&#34;r&#34;:0.80419147014617920,&#34;g&#34;:0.15643490850925446,&#34;b&#34;:0.90384614467620850,&#34;a&#34;:1.0},&#34;position&#34;:0.80000001192092896}],&#34;transform&#34;:{&#34;m00&#34;:1.7145056465587942e-15,&#34;m01&#34;:-28.000001907348633,&#34;m02&#34;:26.18457031250,&#34;m10&#34;:44.0,&#34;m11&#34;:2.6942231286269285e-15,&#34;m12&#34;:-8.45996093750},&#34;opacity&#34;:0.80000001192092896,&#34;blendMode&#34;:&#34;NORMAL&#34;,&#34;visible&#34;:true}"/>
<defs>
<clipPath id="paint0_angular_3311_9_clip_path"><path d="M6.18457 17.4766C6.263 17.7108 6.34878 17.9365 6.44336 18.1533C7.00586 19.4232 7.79022 20.3825 8.7959 21.0303C9.8014 21.6778 10.9645 22.0019 12.2852 22.002C13.0266 22.002 13.7131 21.904 14.3438 21.708C14.9828 21.512 15.5497 21.2265 16.0439 20.8516C16.5382 20.4681 16.9476 20.0034 17.2715 19.458C17.6039 18.9126 17.8341 18.2897 17.9619 17.5908L23.5615 17.6172C23.4166 18.8187 23.054 19.9775 22.4746 21.0938C21.9036 22.2017 21.1317 23.1944 20.1602 24.0723C19.1971 24.9415 18.047 25.6322 16.709 26.1436C15.3795 26.6464 13.8752 26.8984 12.1963 26.8984C9.86106 26.8984 7.77255 26.3693 5.93164 25.3125C4.09942 24.2557 2.65025 22.7263 1.58496 20.7236C1.07664 19.7603 0.692534 18.6986 0.428711 17.54H6.18457V17.4766ZM5.72754 11.54C5.65118 12.1388 5.6123 12.7752 5.6123 13.4492C5.61231 14.1937 5.65892 14.8904 5.74707 15.54H0.102539C0.0341257 14.8704 2.52236e-06 14.1735 0 13.4492C0 12.7901 0.0296848 12.1537 0.0869141 11.54H5.72754ZM12.1963 0C13.7132 2.49116e-05 15.1197 0.213537 16.415 0.639648C17.7188 1.06575 18.8734 1.68784 19.8789 2.50586C20.8845 3.31549 21.7033 4.3083 22.334 5.48438C22.9732 6.66051 23.3825 8.00737 23.5615 9.52441H17.9619C17.8596 8.79998 17.6503 8.15625 17.335 7.59375C17.0197 7.02296 16.6152 6.53717 16.1211 6.13672C15.6268 5.73615 15.055 5.42889 14.4072 5.21582C13.7683 5.0029 13.0739 4.89652 12.3242 4.89648C10.9691 4.89648 9.78791 5.23296 8.78223 5.90625C7.77665 6.57101 6.9973 7.54299 6.44336 8.82129C6.34281 9.05177 6.25222 9.29159 6.16992 9.54004H0.391602C0.66 8.30449 1.06553 7.17827 1.61035 6.16211C2.68422 4.15927 4.14249 2.63423 5.9834 1.58594C7.82427 0.529174 9.89521 0 12.1963 0Z"/></clipPath></defs>
</svg>
